<svg xmlns="http://www.w3.org/2000/svg" width="350" height="350" viewBox="0 0 350 350"><defs><style>.a{fill:#fdd26e;}.b{fill:#333;}</style></defs><g transform="translate(-991 -723)"><g transform="translate(831 -683)"><rect class="a" width="350" height="350" transform="translate(160 1406)"/></g><g transform="translate(2501.228 -175.758)"><g transform="translate(-1353.439 1107.306)"><path class="b" d="M-1368.1,1078.94a1.674,1.674,0,0,1-.75-.178,1.678,1.678,0,0,1-.749-2.252l2.588-5.161a1.677,1.677,0,0,1,1.5-.926h10.346a1.678,1.678,0,0,1,1.678,1.678,1.678,1.678,0,0,1-1.678,1.678h-9.31l-2.123,4.234A1.677,1.677,0,0,1-1368.1,1078.94Z" transform="translate(1369.779 -1070.423)"/></g><g transform="translate(-1383.285 1028.845)"><path class="b" d="M-1345.293,1105.487c-.029,0-.057,0-.084,0a1.678,1.678,0,0,1-1.594-1.759l3.747-76.285c-5.842-1.5-9.839,1.024-18.7,6.625l-1.776,1.123c-11.638,7.325-23.142-2.022-23.258-2.12a1.679,1.679,0,0,1-.218-2.363,1.679,1.679,0,0,1,2.363-.22c.391.322,9.763,7.877,19.324,1.861l1.772-1.117c9.493-6,14.724-9.306,22.766-6.614a1.68,1.68,0,0,1,1.144,1.673l-3.811,77.6A1.68,1.68,0,0,1-1345.293,1105.487Z" transform="translate(1387.564 -1023.669)"/></g><g transform="translate(-1336.325 1028.845)"><path class="b" d="M-1356.609,1054.242a1.678,1.678,0,0,1-1.675-1.6l-1.3-26.356a1.68,1.68,0,0,1,1.145-1.673c8.042-2.692,13.274.612,22.767,6.614l1.772,1.117c9.559,6.02,18.932-1.537,19.326-1.863a1.678,1.678,0,0,1,2.361.225,1.676,1.676,0,0,1-.22,2.359c-.114.1-11.616,9.448-23.256,2.12l-1.777-1.123c-8.864-5.6-12.86-8.129-18.7-6.625l1.23,25.04a1.679,1.679,0,0,1-1.594,1.759C-1356.553,1054.242-1356.58,1054.242-1356.609,1054.242Z" transform="translate(1359.581 -1023.669)"/></g><g transform="translate(-1367.963 1112.466)"><path class="b" d="M-1349.3,1082.7h-27.458a1.678,1.678,0,0,1-1.509-.945,1.682,1.682,0,0,1,.188-1.771l4.576-5.84a1.681,1.681,0,0,1,1.321-.643h22.882a1.677,1.677,0,0,1,1.678,1.678,1.678,1.678,0,0,1-1.678,1.678h-22.064l-1.947,2.485h24.011a1.678,1.678,0,0,1,1.678,1.678A1.679,1.679,0,0,1-1349.3,1082.7Z" transform="translate(1378.434 -1073.498)"/></g><g transform="translate(-1387.785 1037.444)"><path class="b" d="M-1388.566,1068.872a1.636,1.636,0,0,1-.356-.039,1.678,1.678,0,0,1-1.286-1.994l7.919-36.72a1.674,1.674,0,0,1,2-1.287,1.681,1.681,0,0,1,1.285,2l-7.919,36.72A1.681,1.681,0,0,1-1388.566,1068.872Z" transform="translate(1390.245 -1028.794)"/></g><g transform="translate(-1377.388 1038.55)"><path class="b" d="M-1375.248,1068.426a1.68,1.68,0,0,1-1.645-1.349l-7.124-35.616a1.675,1.675,0,0,1,1.316-1.974,1.673,1.673,0,0,1,1.975,1.315l7.124,35.615a1.676,1.676,0,0,1-1.316,1.975A1.586,1.586,0,0,1-1375.248,1068.426Z" transform="translate(1384.05 -1029.452)"/></g><g transform="translate(-1295.343 1037.444)"><path class="b" d="M-1330.063,1048.014a1.678,1.678,0,0,1-1.638-1.324l-3.422-15.862a1.68,1.68,0,0,1,1.287-2,1.673,1.673,0,0,1,1.994,1.287l3.422,15.862a1.68,1.68,0,0,1-1.287,2A1.717,1.717,0,0,1-1330.063,1048.014Z" transform="translate(1335.161 -1028.794)"/></g><g transform="translate(-1300.781 1038.55)"><path class="b" d="M-1336.721,1047.608a1.605,1.605,0,0,1-.331-.033,1.676,1.676,0,0,1-1.315-1.975l2.958-14.8a1.671,1.671,0,0,1,1.975-1.316,1.675,1.675,0,0,1,1.316,1.974l-2.959,14.8A1.679,1.679,0,0,1-1336.721,1047.608Z" transform="translate(1338.401 -1029.452)"/></g><g transform="translate(-1393.874 1074.167)"><path class="b" d="M-1377.421,1066.708c-13.855,0-16.4-13.929-16.428-14.07a1.678,1.678,0,0,1,.371-1.366,1.68,1.68,0,0,1,1.284-.6h29.544a1.68,1.68,0,0,1,1.284.6,1.681,1.681,0,0,1,.371,1.366C-1361.019,1052.779-1363.568,1066.708-1377.421,1066.708Zm-12.58-12.675c1.126,3.241,4.338,9.319,12.58,9.319s11.452-6.078,12.578-9.319Z" transform="translate(1393.874 -1050.676)"/></g><g transform="translate(-1391.807 1079.25)"><path class="b" d="M-1365.55,1057.061h-25.414a1.678,1.678,0,0,1-1.678-1.678,1.678,1.678,0,0,1,1.678-1.678h25.414a1.678,1.678,0,0,1,1.678,1.678A1.678,1.678,0,0,1-1365.55,1057.061Z" transform="translate(1392.642 -1053.705)"/></g><g transform="translate(-1334.296 1060.149)"><g transform="translate(0 6.172)"><path class="b" d="M-1311.962,1110.535h-41.508a4.906,4.906,0,0,1-4.9-4.9V1050.9a4.906,4.906,0,0,1,4.9-4.9h41.508a4.906,4.906,0,0,1,4.9,4.9v54.734A4.906,4.906,0,0,1-1311.962,1110.535Zm-41.508-61.178a1.548,1.548,0,0,0-1.545,1.544v54.734a1.548,1.548,0,0,0,1.545,1.544h41.508a1.547,1.547,0,0,0,1.546-1.544V1050.9a1.547,1.547,0,0,0-1.546-1.544Z" transform="translate(1358.372 -1046.001)"/></g><g transform="translate(7.043)"><path class="b" d="M-1305.181,1108.423a1.677,1.677,0,0,1-1.678-1.678v-53.8a7.28,7.28,0,0,0-7.271-7.27H-1352.5a1.678,1.678,0,0,1-1.678-1.678,1.679,1.679,0,0,1,1.678-1.678h38.367a10.64,10.64,0,0,1,10.628,10.626v53.8A1.678,1.678,0,0,1-1305.181,1108.423Z" transform="translate(1354.175 -1042.323)"/></g><g transform="translate(9.232 25.995)"><path class="b" d="M-1323.709,1061.169h-27.483a1.679,1.679,0,0,1-1.678-1.678,1.678,1.678,0,0,1,1.678-1.678h27.483a1.678,1.678,0,0,1,1.678,1.678A1.679,1.679,0,0,1-1323.709,1061.169Z" transform="translate(1352.871 -1057.813)"/></g><g transform="translate(9.232 35.97)"><path class="b" d="M-1323.709,1067.113h-27.483a1.678,1.678,0,0,1-1.678-1.678,1.678,1.678,0,0,1,1.678-1.678h27.483a1.678,1.678,0,0,1,1.678,1.678A1.678,1.678,0,0,1-1323.709,1067.113Z" transform="translate(1352.871 -1063.757)"/></g><g transform="translate(9.232 45.947)"><path class="b" d="M-1323.709,1073.058h-27.483a1.678,1.678,0,0,1-1.678-1.678,1.678,1.678,0,0,1,1.678-1.678h27.483a1.678,1.678,0,0,1,1.678,1.678A1.678,1.678,0,0,1-1323.709,1073.058Z" transform="translate(1352.871 -1069.702)"/></g><g transform="translate(9.232 55.923)"><path class="b" d="M-1337.452,1079h-13.741a1.678,1.678,0,0,1-1.678-1.678,1.679,1.679,0,0,1,1.678-1.678h13.741a1.678,1.678,0,0,1,1.678,1.678A1.677,1.677,0,0,1-1337.452,1079Z" transform="translate(1352.871 -1075.647)"/></g><g transform="translate(9.232 18.463)"><path class="b" d="M-1337.452,1056.681h-13.741a1.678,1.678,0,0,1-1.678-1.678,1.678,1.678,0,0,1,1.678-1.678h13.741a1.677,1.677,0,0,1,1.678,1.678A1.677,1.677,0,0,1-1337.452,1056.681Z" transform="translate(1352.871 -1053.325)"/></g></g><g transform="translate(-1379.1 1035.56)"><path class="b" d="M-1371.351,1037.166c-5.093,0-9.282-1.91-12.893-4.038a1.678,1.678,0,0,1-.594-2.3,1.683,1.683,0,0,1,2.3-.594c5.32,3.135,11.45,5.471,20.2,1.361,12.64-5.937,19.239-3.41,19.516-3.3a1.678,1.678,0,0,1,.93,2.183,1.674,1.674,0,0,1-2.164.937c-.138-.051-5.783-1.984-16.852,3.217A24.375,24.375,0,0,1-1371.351,1037.166Z" transform="translate(1385.07 -1027.671)"/></g><g transform="translate(-1336.042 1035.56)"><path class="b" d="M-1329.842,1037.166a24.361,24.361,0,0,1-10.438-2.53c-11.15-5.238-16.8-3.237-16.854-3.216a1.689,1.689,0,0,1-2.162-.961,1.668,1.668,0,0,1,.927-2.16c.277-.11,6.877-2.64,19.516,3.3,8.753,4.112,14.882,1.774,20.2-1.361a1.68,1.68,0,0,1,2.3.594,1.678,1.678,0,0,1-.593,2.3C-1320.559,1035.257-1324.749,1037.166-1329.842,1037.166Z" transform="translate(1359.412 -1027.671)"/></g><g transform="translate(-1342.302 1016.037)"><path class="b" d="M-1356.793,1032.631h0a1.678,1.678,0,0,1-1.333-.658l-4.671-6.092a1.676,1.676,0,0,1-.075-1.935l4.67-7.194a1.743,1.743,0,0,1,2.814,0l4.672,7.194a1.676,1.676,0,0,1-.075,1.935l-4.672,6.092A1.675,1.675,0,0,1-1356.793,1032.631Zm-2.618-7.851,2.618,3.413,2.618-3.413-2.618-4.033Z" transform="translate(1363.143 -1016.037)"/></g></g></g></svg>